<svg width="101" height="23" viewBox="0 0 101 23" fill="none" xmlns="http://www.w3.org/2000/svg">
<g filter="url(#filter0_di_1_55)">
<path d="M3.16 18V0.863999H13.984V3.864H6.784V7.44H8.224C9.84 7.44 11.16 7.664 12.184 8.112C13.224 8.56 13.992 9.176 14.488 9.96C14.984 10.744 15.232 11.64 15.232 12.648C15.232 14.344 14.664 15.664 13.528 16.608C12.408 17.536 10.616 18 8.152 18H3.16ZM8.008 15.024C9.112 15.024 9.976 14.848 10.6 14.496C11.24 14.144 11.56 13.528 11.56 12.648C11.56 11.736 11.216 11.136 10.528 10.848C9.84 10.56 8.904 10.416 7.72 10.416H6.784V15.024H8.008ZM21.6327 10.08C21.6327 10.352 21.6167 10.688 21.5847 11.088C21.5687 11.488 21.5447 11.896 21.5127 12.312C21.4967 12.728 21.4727 13.096 21.4407 13.416C21.4087 13.736 21.3847 13.96 21.3687 14.088L27.4167 4.896H31.7127V18H28.2567V12.768C28.2567 12.336 28.2727 11.864 28.3047 11.352C28.3367 10.824 28.3687 10.336 28.4007 9.888C28.4487 9.424 28.4807 9.072 28.4967 8.832L22.4727 18H18.1767V4.896H21.6327V10.08ZM54.9621 4.896V18H35.4501V4.896H39.0261V15.312H43.4181V4.896H46.9941V15.312H51.3861V4.896H54.9621ZM67.2921 4.896H71.2281L66.0441 11.184L71.6841 18H67.6281L62.2761 11.352V18H58.7001V4.896H62.2761V11.256L67.2921 4.896ZM78.4908 4.656C80.2988 4.656 81.7308 5.176 82.7868 6.216C83.8428 7.24 84.3708 8.704 84.3708 10.608V12.336H75.9228C75.9548 13.344 76.2508 14.136 76.8108 14.712C77.3868 15.288 78.1788 15.576 79.1868 15.576C80.0348 15.576 80.8028 15.496 81.4908 15.336C82.1788 15.16 82.8908 14.896 83.6268 14.544V17.304C82.9868 17.624 82.3068 17.856 81.5868 18C80.8828 18.16 80.0268 18.24 79.0188 18.24C77.7068 18.24 76.5468 18 75.5388 17.52C74.5308 17.024 73.7388 16.28 73.1628 15.288C72.5868 14.296 72.2988 13.048 72.2988 11.544C72.2988 10.008 72.5548 8.736 73.0668 7.728C73.5948 6.704 74.3228 5.936 75.2508 5.424C76.1788 4.912 77.2588 4.656 78.4908 4.656ZM78.5148 7.2C77.8268 7.2 77.2508 7.424 76.7868 7.872C76.3388 8.32 76.0748 9.016 75.9948 9.96H81.0108C80.9948 9.16 80.7868 8.504 80.3868 7.992C79.9868 7.464 79.3628 7.2 78.5148 7.2ZM95.8624 4.896H99.7984L94.6144 11.184L100.254 18H96.1984L90.8464 11.352V18H87.2704V4.896H90.8464V11.256L95.8624 4.896Z" fill="white"/>
</g>
<defs>
<filter id="filter0_di_1_55" x="0.160034" y="0.864014" width="100.094" height="21.376" filterUnits="userSpaceOnUse" color-interpolation-filters="sRGB">
<feFlood flood-opacity="0" result="BackgroundImageFix"/>
<feColorMatrix in="SourceAlpha" type="matrix" values="0 0 0 0 0 0 0 0 0 0 0 0 0 0 0 0 0 0 127 0" result="hardAlpha"/>
<feOffset dx="-2" dy="3"/>
<feGaussianBlur stdDeviation="0.5"/>
<feColorMatrix type="matrix" values="0 0 0 0 0 0 0 0 0 0 0 0 0 0 0 0 0 0 0.1 0"/>
<feBlend mode="normal" in2="BackgroundImageFix" result="effect1_dropShadow_1_55"/>
<feBlend mode="normal" in="SourceGraphic" in2="effect1_dropShadow_1_55" result="shape"/>
<feColorMatrix in="SourceAlpha" type="matrix" values="0 0 0 0 0 0 0 0 0 0 0 0 0 0 0 0 0 0 127 0" result="hardAlpha"/>
<feOffset dx="-1" dy="1"/>
<feGaussianBlur stdDeviation="1"/>
<feComposite in2="hardAlpha" operator="arithmetic" k2="-1" k3="1"/>
<feColorMatrix type="matrix" values="0 0 0 0 1 0 0 0 0 1 0 0 0 0 1 0 0 0 0.25 0"/>
<feBlend mode="normal" in2="shape" result="effect2_innerShadow_1_55"/>
</filter>
</defs>
</svg>
